<svg id="Layer_4" data-name="Layer 4" xmlns="http://www.w3.org/2000/svg" viewBox="0 0 80 80"><defs><style>.cls-1{fill:#e6e6e6;}.cls-2{fill:#fff;}</style></defs><title>uvu-mono</title><polygon class="cls-1" points="44.5 29.61 38.83 44.84 33.16 29.61 28.65 29.61 35.98 49.35 41.68 49.35 49.01 29.61 44.5 29.61"/><polygon class="cls-1" points="8.6 49.34 24.19 49.34 25.88 44.8 25.88 29.61 16.98 29.61 16.98 33.84 21.38 33.84 21.38 44.8 11.42 44.8 11.42 29.61 6.92 29.61 6.92 44.8 8.6 49.34"/><polygon class="cls-1" points="66.23 44.8 56.28 44.8 56.28 29.61 51.78 29.61 51.77 44.8 53.46 49.35 69.05 49.35 70.74 44.8 70.74 29.61 66.23 29.61 66.23 44.8"/><path class="cls-2" d="M70.37,49v.38h-.06v-.51h.06l.15.33.16-.33h.06v.51h-.06V49l-.13.28h0Zm-.53-.13h.38v.06h-.16v.45H70v-.45h-.15Z"/></svg>